<svg width="483" height="749" viewBox="0 0 483 749" fill="none" xmlns="http://www.w3.org/2000/svg">
<path d="M34.6136 490.109C52.7016 515.396 75.2949 533.964 97.637 549.314C121.275 565.56 147.439 570.743 173.155 573.439C186.684 574.864 200.236 575.572 213.769 576.847C226.833 578.078 239.923 579.414 252.531 584.966C274.605 594.674 293.397 615.769 310.299 638.424C318.717 649.716 326.756 661.617 334.858 673.403C338.932 679.319 342.938 685.364 347.306 690.781C352.565 697.334 358.142 703.444 362.483 711.293C364.848 715.539 368.455 718.823 371.339 722.257L382.242 735.298C385.8 739.569 389.34 743.88 392.898 748.161H393.943C385.665 738.171 377.375 728.214 369.075 718.29C364.258 712.534 360.44 705.831 355.696 699.93C350.421 693.362 345.162 686.879 340.215 679.762C324.334 656.933 308.942 633.171 291.132 613.631C273.443 594.195 253.653 581.402 231.736 578.009C204.775 573.847 177.586 574.246 150.675 569.248C136.788 566.681 123.054 562.335 109.81 555.558C97.2686 549.159 85.2333 539.73 73.7005 530.057C62.1889 520.408 51.2527 509.313 41.0114 496.892C30.3696 483.97 22.9434 468.217 19.5436 448.153C12.4289 406.192 35.2266 371.706 51.2077 342.079C68.0765 310.797 84.0743 278.494 100.143 246.291C104.162 238.231 108.195 230.179 112.241 222.136C114.518 217.501 117.012 213.111 119.704 208.999C121.828 205.835 124.247 202.884 125.777 198.982C128.956 190.879 134.332 184.261 138.754 177.588C143.91 169.862 149.425 162.685 155.258 156.109C160.409 150.234 165.246 144.124 170.8 139.061C176.832 133.647 183.048 128.702 189.424 124.245C202.337 115.065 215.836 108.796 229.519 102.711C255.743 91.0892 282.396 81.8149 308.416 69.1567C320.227 63.4107 331.79 56.6979 342.757 47.922C350.428 41.8022 361.632 33.5645 354.444 19.0176C350.716 11.4875 344.512 7.43589 338.818 4.18663C336.808 3.04541 334.845 1.85933 332.865 0.65332H330.41L331.08 1.08689C337.26 4.93914 343.614 7.35615 349.218 13.0473C352.35 16.2218 356.028 21.5941 356.333 27.5593C356.708 35.0346 351.603 39.0563 347.989 42.3454C342.132 47.5799 336.047 52.2265 329.774 56.2544C304.879 72.5455 277.958 81.5856 251.838 92.2603C238.419 97.7422 225.041 103.498 211.806 109.882C199.433 115.837 187.648 123.836 176.26 133.21C165.028 142.439 154.531 154.38 145.028 167.202C140.392 173.457 136.084 180.234 131.736 186.922C127.228 193.839 123.794 201.519 119.239 208.351C109.86 222.34 102.517 239.932 94.6157 255.779C86.4459 272.15 78.2728 288.506 69.9724 304.733C61.2901 321.706 52.4169 338.458 43.3528 354.986C35.6486 368.99 28.0215 382.749 22.8798 399.34C13.3836 429.909 18.0429 466.936 34.6136 490.109Z" fill="#880817" fill-opacity="0.63"/>
<path d="M32.1275 508.04C51.8555 532.928 76.4595 550.584 99.955 566.048C112.011 573.972 124.432 580.092 137.375 583.75C150.318 587.408 163.546 588.643 176.69 589.6C203.481 591.594 230.848 592.062 256.216 606.649C268.472 613.691 278.683 624.874 289.148 636.435C300.072 648.491 310.916 660.68 320.667 674.868C329.612 687.91 339.046 699.382 349.012 710.615C359.805 722.78 370.311 735.533 380.849 748.161H381.888C373.522 738.157 365.145 728.19 356.755 718.26C346.658 706.349 336.018 695.45 326.615 682.309C317.392 669.421 308.397 656.853 298.327 645.431C288.257 634.008 278.234 621.864 267.036 612.948C244.933 595.341 219.405 591.788 194.828 589.889C166.801 587.727 138.932 586.899 112.242 572.407C99.0676 565.266 86.5127 555.752 74.0651 546.224C62.3006 537.219 50.7772 527.595 40.0508 516.014C19.4889 493.797 0.705242 462.227 1.20422 422.159C1.46878 401.014 8.17316 383.512 17.4763 368.257C26.7191 353.103 36.6551 338.855 46.1424 324.024C64.7151 295.01 80.1667 262.657 95.635 229.955C111.274 196.874 129.284 166.584 150.646 141.487C172.414 115.907 197.885 102.197 224.09 90.2619C249.052 78.8995 274.872 69.994 298.793 54.2112C306.807 48.9237 316.699 41.254 317.925 26.8317C318.906 15.3049 310.852 6.72324 304.084 0.65332H302.52C303.421 1.51049 304.328 2.36765 305.229 3.26967C311.535 9.60372 318.802 17.1189 316.856 30.0361C315.426 39.5048 308.705 45.485 303.424 49.7459C297.691 54.3756 291.472 57.9787 285.381 61.4223C272.772 68.5488 259.471 73.4924 246.554 79.2135C233.062 85.1937 219.549 91.0842 206.18 97.6525C182.273 109.384 160.767 126.676 141.665 151.225C121.652 176.93 105.437 207.2 90.3672 239.374C74.199 273.89 56.9123 306.103 37.2411 336.318C28.427 349.858 18.5646 362.91 10.9996 378.105C4.29612 391.451 0.615066 407.621 0.487562 424.282C0.052212 458.823 15.3966 486.915 32.1275 508.04Z" fill="#880817" fill-opacity="0.63"/>
<path d="M50.5156 476.558C56.1095 487.734 62.9689 497.363 70.4175 505.741C86.6168 523.944 106.037 535.025 125.5 542.585C148.462 551.496 172.314 555.755 195.985 556.827C210.076 557.476 224.166 557.496 238.223 559.241C252.463 561.062 266.454 565.921 279.767 573.668C305.21 588.35 320.736 623.537 338.71 652.282C356.395 680.578 375.102 707.462 394.95 732.307C399.264 737.713 403.642 742.997 408.083 748.16H409.181C391.538 727.468 374.706 705.285 358.769 681.72C349.469 668.025 340.477 653.878 331.676 639.46C323.012 625.278 315.042 609.873 305.635 596.763C287.199 571.04 261.05 561.066 236.509 558.034C222.469 556.304 208.351 556.403 194.278 555.77C180.264 555.127 166.492 552.898 152.653 549.756C111.811 540.525 67.0832 518.503 44.925 462.241C37.4898 443.37 36.3282 422.345 42.6218 402.288C48.1856 384.535 55.7647 368.377 63.7824 352.953C71.4352 338.211 80.0554 324.392 86.8813 308.773C94.1859 292.072 100.57 274.773 108.511 258.68C116.91 241.65 125.533 224.869 135.068 209.205C139.282 202.283 143.544 195.436 147.933 188.759C150.152 185.377 152.432 182.091 154.739 178.845C156.898 175.793 159.583 174.356 161.769 171.409C180.593 145.976 204.08 130.292 227.955 118.648C239.609 112.957 251.469 108.23 263.31 103.512C265.901 102.485 268.509 101.518 271.083 100.395C273.169 99.4729 274.973 97.7025 277.23 96.9046C284.012 94.5359 290.764 91.9726 297.456 89.0951C303.546 86.477 309.488 83.9387 315.684 81.914C317.783 81.2308 319.313 80.9166 321.077 79.1712C323.97 76.3087 329.038 75.9347 332.389 74.7428C346.416 69.721 360.473 64.8288 374.841 62.6545C402.489 58.4605 429.837 69.5315 455.891 82.2481C483.058 95.5033 508.902 113.97 535.231 130.332C541.394 134.162 547.567 137.942 553.72 141.802C560.513 146.046 566.937 151.461 573.679 155.89C576.023 157.426 578.664 157.615 581.068 159.241C583.585 160.942 586.126 162.567 588.677 164.178C595.221 168.302 601.877 172.022 608.592 175.473C629.933 186.43 652.059 193.643 674.521 196.967V195.97C651.048 192.377 627.944 184.643 605.696 172.93C599.018 169.439 592.43 165.525 585.925 161.365C583.431 159.765 580.93 157.57 578.349 156.314C574.941 154.648 571.654 153.491 568.346 151.102C556.526 142.535 544.504 135.054 532.376 127.499C506.06 111.092 480.192 92.591 452.919 79.7896C427.507 67.8808 401.699 58.0367 374.858 61.6771C361.568 63.4874 348.498 68.0304 335.546 72.6184C330.632 74.3588 324.224 74.9124 319.966 79.1014C317.67 81.3754 313.716 81.5599 311.041 82.4376C307.389 83.6544 303.907 85.1555 300.329 86.7962C294.223 89.5988 288.046 91.9776 281.85 94.2416C278.974 95.2988 276.031 96.1067 273.196 97.3535C272.744 97.5579 271.96 98.4605 271.586 98.8495C270.039 100.376 267.766 100.73 266.012 101.433C254.144 106.15 242.293 110.878 230.58 116.393C208.325 126.826 186.725 140.715 168.173 162.168C165.829 164.896 163.546 167.794 161.313 170.736C159.452 173.204 157.296 174.032 155.478 176.531C150.457 183.418 145.69 190.743 141.02 198.169C132.202 212.202 123.548 226.724 115.912 242.248C107.821 258.705 99.9874 274.872 92.9975 292.416C85.9674 310.06 77.5982 325.709 68.9847 341.642C61.3922 355.69 54.0574 370.068 47.8509 385.582C41.7481 400.857 37.1383 416.625 37.8078 434.768C38.4138 450.237 44.4898 464.47 50.5156 476.558Z" fill="#880817" fill-opacity="0.63"/>
<path d="M190.082 542.586C213.027 543.875 236.186 542.208 259.05 545.717C270.599 547.494 282.088 550.883 292.766 557.836C303.92 565.079 312.193 576.805 319.696 590.776C328.281 606.784 336.069 623.712 344.376 640.052C352.113 655.258 360.591 668.921 369.668 682.305C374.003 688.711 378.159 695.39 382.541 701.716C387.618 709.053 393.229 715.519 398.682 722.218C405.79 730.953 412.904 739.639 420.143 748.16H421.198C413.323 738.952 405.609 729.445 397.882 719.968C387.635 707.391 378.454 693.892 369.055 679.99C359.312 665.652 350.302 650.252 342.102 633.92C334.448 618.67 327.129 603.061 319.14 588.193C312.173 575.217 304.372 564.984 294.263 557.777C284.885 551.097 274.565 547.792 264.335 545.677C242.141 541.108 219.421 542.75 197.073 541.924C149.898 540.182 98.67 529.028 65.8847 472.828C61.8652 465.935 58.5894 458.185 56.5059 449.569C54.1345 439.689 54.7273 429.287 56.0069 419.178C58.4621 399.766 65.0506 381.967 71.6392 365.079C78.3684 347.818 86.5011 331.417 94.3324 315.236C102.164 299.055 111.043 284.222 117.548 266.831C120.75 258.275 125.336 250.844 129.158 242.875C133.564 233.723 138.443 225.094 143.752 217.068C153.438 202.275 163.34 187.751 174.618 175.627C185.698 163.711 197.18 153.791 209.453 144.896C222.071 135.758 235.368 128.884 248.683 122.354C274.243 109.816 300.43 100.245 326.801 92.4153C355.171 83.9837 384.651 73.8598 413.437 84.1082C437.584 92.704 461.365 100.439 484.615 113.743C509.267 127.864 533.123 144.877 557.347 160.53C578.68 174.322 600.442 190.489 623.55 196.183C625.637 196.681 627.731 197.034 629.831 197.353C631.606 197.611 634.185 197.288 635.743 198.657C636.185 199.04 636.855 199.911 637.364 200.15C642.723 202.504 648.582 203.136 654.112 204.107C660.506 205.232 666.877 206.362 673.181 208.303C673.629 208.442 674.082 208.567 674.52 208.696V207.74C671.928 207.019 669.342 206.167 666.783 205.55C659.997 203.888 653.127 203.062 646.314 201.643C643.386 201.021 639.447 200.857 636.862 198.597C635.244 197.188 634.852 196.85 632.953 196.72C625.741 196.223 618.61 194.107 611.643 191.35C598.771 186.248 586.521 178.026 574.329 170.241C561.49 162.053 548.668 153.866 535.916 145.354C510.952 128.725 485.871 111.354 459.607 99.737C446.617 93.9932 433.33 89.9018 420.133 85.4072C406.664 80.8331 393.644 78.1105 379.784 78.9865C366.191 79.8476 352.864 84.153 339.526 87.7864C326.188 91.4199 312.84 95.5312 299.609 100.15C273.483 109.264 247.738 120.761 222.684 135.086C198.384 149.073 176.088 169.78 156.979 196.108C147.537 209.109 137.886 222.777 130.447 238.416C126.649 246.409 121.849 253.845 118.529 262.232C114.691 271.923 110.936 280.967 106.27 289.856C90.3397 320.218 74.2954 352.312 62.8969 387.014C57.8726 402.265 54.0173 419.218 54.1881 436.389C54.3321 451.127 60.023 464.287 66.2833 475.018C97.012 527.684 145.791 540.097 190.082 542.586Z" fill="#880817" fill-opacity="0.63"/>
<path d="M92.327 478.23C107.743 499.83 127.927 511.899 148.353 518.277C158.605 521.464 169.064 523.11 179.52 523.953C192.65 525.01 205.847 525.948 219.014 525.883C232.014 525.813 244.956 523.728 257.976 523.643C271.981 523.559 286.029 525.02 299.8 528.99C311.656 532.401 320.484 544.615 327.005 559.127C330.474 566.857 334.378 574.213 337.297 582.432C340.282 590.781 343.298 599.104 346.345 607.403C352.287 623.427 358.41 639.096 365.957 653.559C373.276 667.463 381.248 680.578 389.814 692.803C398.816 705.77 408.38 717.849 417.74 730.207C422.848 736.94 428.384 742.6 433.974 748.161H434.52C433.465 747.087 432.424 745.995 431.397 744.884C425.517 738.585 419.879 731.8 414.51 724.561C405.002 711.729 395.183 699.481 386.078 685.991C376.9 672.372 368.509 657.627 360.993 641.914C353.286 625.806 347.176 607.822 340.886 590.422C335.273 574.862 328.909 558.609 320.778 545.627C313.449 533.912 304.26 529.045 293.935 526.486C280.362 523.115 266.552 522.447 252.822 522.736C238.747 523.03 224.775 525.185 210.676 524.82C165.548 523.629 110.759 519.768 81.8342 459.204C78.3045 451.913 75.9013 443.552 74.7966 434.717C73.4829 423.895 75.678 413.023 77.7825 402.76C81.412 384.995 87.0554 368.308 93.329 352.334C99.3847 336.874 106.181 322.107 112.723 307.111C119.948 290.543 126.724 273.737 134.868 258.097C150.954 227.216 169.925 199.248 191.625 177.27C196.722 172.113 201.99 167.356 207.342 162.807C210.023 160.543 212.747 158.404 215.482 156.289C218.81 153.726 223.475 148.963 227.255 148.654C229.266 148.494 230.905 147.083 232.728 145.901C236.303 143.597 239.946 141.472 243.586 139.417C250.362 135.582 257.249 132.206 264.162 128.984C291.163 116.407 318.637 104.762 346.734 99.3057C374.831 93.8497 402.72 95.9543 430.385 105.215C452.754 112.696 474.467 124.002 496.183 134.829C501.418 137.443 506.237 141.497 511.089 145.372C515.53 148.923 519.826 151.217 524.582 153.576C536.361 159.446 547.434 168.577 558.536 176.831C567.682 183.639 577.126 188.666 586.731 194.002C597.669 200.081 608.993 204.585 620.404 208.185C638.216 213.811 656.366 216.763 674.52 218.783V217.786C651.661 215.192 628.872 211.033 606.65 202.326C600.484 199.907 594.405 197.044 588.406 193.847C585.39 192.251 582.411 190.501 579.448 188.691C577.066 187.234 573.49 183.494 570.815 183.28C567.129 182.98 563.607 179.504 560.36 177.075C557.375 174.851 554.391 172.642 551.408 170.448C544.797 165.58 538.16 160.794 531.495 156.09C526.405 152.519 520.661 151.352 515.563 147.696C510.084 143.756 504.896 139.003 499.266 135.478C486.789 127.668 473.264 122.247 460.345 116.307C434.721 104.517 408.441 95.5852 381.53 95.1314C354.435 94.6826 326.884 101.116 300.859 112.197C287.497 117.893 274.079 123.279 260.818 129.523C254.444 132.515 248.124 135.793 241.86 139.358C239.208 140.857 236.576 142.433 233.964 144.085C231.029 145.946 227.714 146.459 224.916 148.409C201.94 164.273 180.448 185.06 162.274 211.487C153.064 224.8 144.398 238.924 136.326 253.783C128.541 268.201 121.952 283.661 115.323 299.271C102.743 328.89 88.7177 357.307 80.0413 390.162C75.9762 405.562 72.2128 422.404 74.7161 439.001C77.0721 454.586 84.7464 467.623 92.327 478.23Z" fill="#880817" fill-opacity="0.63"/>
<path d="M133.63 491.609C177.122 522.889 226.673 513.364 272.718 503.729C283.531 501.463 294.672 497.651 305.625 498.928C317.181 500.281 326.598 508.798 333.835 522.016C342.055 537.02 345.401 554.858 350.138 572.557C354.273 587.97 358.972 603.033 364.213 617.679C375.042 648.002 388.635 676.019 405.028 700.114C413.53 712.589 423.366 722.443 432.75 733.321C437.186 738.466 441.646 743.555 446.299 748.161H447.494C440.752 741.634 434.446 734.02 428.089 726.705C422.797 720.612 417.26 715.084 412.171 708.602C407.153 702.21 402.509 695.13 397.999 687.919C380.342 659.732 366.765 625.927 356.083 590.889C346.779 560.372 342.195 520.15 320.168 503.754C311.226 497.102 301.169 496.943 291.49 498.854C279.369 501.264 267.265 503.968 255.134 506.338C231.113 510.994 206.814 514.147 182.639 510.515C157.607 506.762 130.645 494.388 111.094 469.838C101.85 458.217 95.4167 441.846 94.3662 423.718C93.1818 403.106 98.6418 382.303 104.159 363.841C109.746 345.205 116.561 327.98 123.422 310.371C125.052 306.185 126.293 301.355 128.902 298.336C130.692 296.26 131.579 293.89 132.807 291.021C136.343 282.698 140.13 274.63 144.078 266.741C151.908 251.249 160.52 236.672 169.839 223.136C174.589 216.15 179.44 209.938 184.971 204.395C190.638 198.721 195.098 191.197 200.799 185.543C206.289 180.105 211.839 174.81 217.553 169.896C224.244 164.142 231.886 160.131 238.992 155.72C252.039 147.616 265.301 140.197 278.646 133.221C304.859 119.524 333.698 112.578 361.322 109.834C387.785 107.205 414.356 111.96 440.093 121.166C481.629 136.02 520.775 162.925 558.888 191.177C578.409 205.647 600.175 213.426 621.527 219.244C639.037 224.014 656.762 226.764 674.52 228.455V227.457C650.784 225.167 627.154 220.881 603.959 212.827C590.4 208.127 575.903 202.788 563.404 193.452C551.748 184.745 540.035 176.228 528.209 168.069C482.04 136.235 433.094 110.353 381.817 108.272C327.164 106.067 274.204 131.225 224.746 163.768C218.664 167.76 213.067 172.595 207.44 177.914C201.903 183.158 196.292 188.133 191.652 195.084C187.356 201.51 182.007 205.852 177.232 211.41C172.08 217.398 167.49 225.097 162.97 232.103C154.646 245.073 146.954 258.913 139.953 273.517C138.173 277.21 136.457 280.967 134.767 284.749C133.078 288.531 131.575 293.466 129.307 296.65C127.568 299.09 126.54 300.098 125.359 303.311C123.496 308.381 121.512 313.36 119.528 318.33C112.837 335.076 106.718 351.981 101.653 369.989C96.862 387.004 93.0647 405.022 93.7104 423.708C94.8881 457.559 115.186 478.341 133.63 491.609Z" fill="#880817" fill-opacity="0.63"/>
<path d="M139.444 469.865C143.623 474.004 147.505 475.674 151.949 478.84C157.505 482.829 163.375 485.731 169.326 488.035C193.402 497.334 219.166 492.876 243.319 486.584C256.661 483.094 269.776 477.748 282.776 472.174C289.089 469.456 295.382 466.689 301.705 463.976C308.949 460.885 315.684 456.662 323.346 459.035C334.759 462.58 343.775 474.657 349.92 488.952C356.434 504.095 358.832 521.612 361.112 538.994C365.64 573.628 372.305 606.168 384.261 636.724C402.827 684.212 430.594 723.678 463.521 748.16H464.998C429.629 722.342 400.53 679.281 381.561 627.594C379.009 620.643 376.695 613.508 374.528 606.268C373.557 602.982 373.621 599.207 372.599 596.056C370.822 590.561 369.29 584.898 368.011 579.103C363.959 560.903 362.372 541.667 359.559 523.008C355.292 494.741 344.579 466.779 324.776 458.536C320.051 456.577 315.319 456.931 310.633 458.915C303.895 461.777 297.167 464.899 290.429 467.826C277.445 473.475 264.454 479.05 251.222 483.283C225.248 491.585 197.153 496.516 170.974 487.616C164.538 485.379 158.275 482.158 152.284 478.003C150.864 477.005 148.673 474.348 147.123 474.213C143.894 473.934 141.239 470.453 138.616 467.861C128.03 457.39 118.127 443.902 115.137 424.79C111.999 404.765 115.833 383.369 120.575 364.646C125.488 345.245 132.25 326.995 139.41 309.264C145.817 293.398 153.988 278.35 161.748 263.89C169.019 250.247 177.088 237.591 185.86 226.069C190.308 220.275 195.378 215.539 199.538 209.311C204.541 201.831 210.65 196.277 216.577 190.573C226.839 180.703 237.521 171.839 248.557 164.036C271.474 147.826 295.961 137.873 320.824 130.987C334.863 127.103 348.46 122.586 362.81 122.187C377.161 121.788 391.679 123.683 405.801 127.103C429.74 132.892 453.484 143.877 476.287 156.023C500.678 169.012 523.702 186.708 547.175 202.938C557.617 210.158 568.123 216.85 579.03 222.355C584.499 225.117 590.246 227.112 595.896 228.802C598.324 229.525 600.842 229.62 603.304 229.694C606.526 229.809 609.037 230.851 612.078 232.138C614.064 232.97 616.532 232.691 618.578 232.915C622.021 233.304 625.454 233.723 628.897 234.147C635.193 234.92 641.489 235.743 647.792 236.545C656.697 237.677 665.598 238.759 674.52 239.682V238.685C664.456 237.642 654.406 236.396 644.359 235.104C637.48 234.227 630.606 233.366 623.736 232.522C620.303 232.108 616.861 231.729 613.428 231.355C610.36 231.026 607.966 228.727 604.824 228.722C591.368 228.722 578.367 221.183 565.946 214.078C552.215 206.209 538.99 196.172 525.695 186.798C513.391 178.122 501.11 168.384 488.34 161.368C475.57 154.353 462.774 148.025 449.78 142.166C423.42 130.299 396.96 122.252 369.374 121.224C355.834 120.726 343.071 123.473 329.856 127.462C317.13 131.302 304.404 134.692 291.819 139.569C268.811 148.494 246.889 162.505 226.376 180.406C221.209 184.893 216.155 189.71 211.169 194.651C208.61 197.194 206.082 199.807 203.563 202.445C200.68 205.471 198.657 209.924 195.79 212.996C186.483 223.043 178.041 234.765 170.298 247.4C154.002 273.997 139.534 304.413 128.412 336.359C122.665 352.894 117.625 370.41 115.016 388.68C112.772 404.311 112.143 423.424 117.525 437.874C122.585 451.506 130.89 461.418 139.444 469.865Z" fill="#880817" fill-opacity="0.63"/>
<path d="M200.793 477.059C226.9 479.473 252.338 468.652 275.506 451.265C280.366 447.626 285.367 445.481 290.287 441.966C295.911 437.969 301.771 434.752 307.792 432.358C319.704 427.601 332.429 427.516 343.803 435.15C355.176 442.784 363.269 459.971 367.955 476.685C372.473 492.756 374.036 510.417 375.262 527.62C375.851 535.837 376.323 544.074 376.912 552.291C377.156 555.782 377.427 559.232 377.745 562.688C378.301 568.741 379.83 574.435 380.088 580.538C380.423 588.556 381.912 595.741 384.104 603.041C385.487 607.648 387.277 611.832 388.566 616.504C389.654 620.493 390.611 624.482 391.87 628.351C393.208 632.49 395.3 636.02 396.87 639.974C398.406 643.848 399.722 647.952 401.241 651.821C401.462 652.38 402.727 654.07 403.049 654.549C406.57 659.819 403.691 656.593 405.114 659.844C406.684 663.409 408.662 666.426 410.034 670.241C411.202 673.477 413.645 676.508 415.279 679.261C417.33 682.691 419.446 686.052 421.598 689.353C426.18 696.396 431.01 703.072 436.067 709.352C449.014 725.493 463.848 738.946 479.673 748.16H482.508C465.233 738.686 448.94 724.132 435.364 707.198C425.601 695.012 415.811 680.986 408.735 665.14C407.46 662.268 406.208 659.281 404.967 656.459C403.554 653.233 401.599 650.844 400.311 647.379C396.944 638.269 392.76 629.897 390.226 620.194C388.067 611.961 385.045 604.467 382.906 596.26C381.595 591.237 380.865 585.92 380.747 580.533C380.633 575.637 379.251 571.289 378.769 566.517C377.039 549.514 376.523 532.302 374.954 515.269C372.125 484.603 364.879 450.617 345.356 435.18C326.693 420.441 304.026 430.458 286.424 443.701C284.081 445.466 281.738 445.197 279.446 447.062C276.634 449.351 273.756 451.49 270.874 453.544C264.319 458.198 257.575 462.235 250.681 465.631C237.142 472.387 223.617 475.708 209.358 476.246C183.961 477.184 153.419 466.882 138.086 433.864C122.837 401.044 136.938 357.609 147.753 326.66C158.172 296.822 172.036 269.877 187.991 246.212C196.282 234.002 205.136 222.673 214.489 212.306C218.864 207.424 223.356 202.792 227.914 198.314C233.243 193.094 238.089 187.589 243.759 183.221C249.58 178.733 255.364 174.166 261.164 169.688C267.072 165.141 273.806 162.209 280.082 158.654C292.225 151.798 304.933 147.38 317.508 142.723C371.667 122.673 429.825 143.271 480.081 175.024C496.398 185.33 512.34 196.908 528.372 208.157C536.341 213.742 544.348 219.232 552.421 224.487C560.3 229.613 568.299 235.242 576.586 238.678C584.228 241.844 592.371 242.517 600.216 243.704C610.063 245.2 619.944 246.003 629.821 246.651C644.719 247.613 659.633 248.097 674.521 249.353V248.356C649.753 246.257 624.921 246.287 600.216 242.722C593.378 241.724 586.494 240.797 579.739 238.783C572.985 236.768 566.626 232.335 560.306 228.436C547.095 220.274 534.159 211.169 521.24 202.054C496.97 184.941 472.707 167.829 447.099 155.602C434.291 149.539 421.258 144.583 408.066 140.758C395.22 136.989 382.454 135.363 369.387 134.456C342.815 132.621 316.902 140.659 291.538 151.908C285.635 154.526 279.825 157.596 274.134 161.107C271.734 162.603 269.264 163.102 266.854 164.283C263.798 165.779 260.766 168.891 257.907 171.094C252.087 175.582 246.293 180.169 240.469 184.627C235.034 188.786 230.391 194.639 225.277 199.725C188.864 235.861 158.574 285.803 140.828 345.822C132.309 374.632 124.427 409.87 139.044 437.598C153.744 465.456 178.097 474.97 200.793 477.059Z" fill="#880817" fill-opacity="0.63"/>
<path d="M674.484 590.584C654.842 594.899 635.893 601.226 620.501 622.096C612.257 633.291 606.432 648.003 600.604 662.058C594.775 676.113 589.165 690.302 582.204 703.171C565.938 733.283 541.06 747.312 515.482 745.305C489.106 743.222 463.461 725.147 443.547 699.713C424.558 675.46 408.711 644.635 399.64 609.581C389.899 571.911 393.563 530.365 389.818 491.041C389.001 482.004 387.718 473.073 385.983 464.327C385.194 460.589 384.274 456.916 383.226 453.321C381.886 448.598 379.287 444.015 379.089 438.823C378.925 434.663 373.864 427.788 372.055 424.873C368.565 419.388 364.591 414.633 360.241 410.739C342.34 394.298 320.339 395.558 300.951 404.511C277.105 415.517 256.692 438.604 232.698 448.892C208.182 459.43 177.62 456.739 160.242 425.476C156.422 418.495 153.836 410.204 152.718 401.358C151.378 391.02 153.529 380.318 154.162 370.02C154.745 360.554 157.887 351.636 160.526 343.042C162.975 335.07 165.701 327.308 168.596 319.681C179.941 289.758 194.723 262.954 211.602 239.633C249.119 187.818 298.124 154.647 349.334 150.373C363.068 149.227 376.859 150.577 390.428 153.701C404.051 156.824 417.038 163.535 429.984 170.351C443.665 177.552 457.139 185.558 470.408 194.37C475.919 198.027 481.479 200.323 486.879 204.429C493.243 209.276 499.571 214.224 505.908 219.156C519.508 229.738 533.141 240.205 547.109 249.696C550.169 251.769 553.244 253.782 556.334 255.735C559.908 257.992 564.079 258.505 567.897 259.402C575.149 261.101 582.479 262.077 589.804 262.73C618.029 265.266 646.283 261.509 674.521 261.948V260.951C650.216 260.523 625.921 263.078 601.615 262.416C586.994 262.007 572.396 260.109 558.049 255.76C554.592 254.703 550.68 251.027 547.444 248.84C544.43 246.812 541.442 244.709 538.464 242.597C532.046 238.033 525.691 233.26 519.371 228.428C507.144 219.096 495.032 209.451 482.782 200.199C480.983 198.839 479.463 197.404 477.423 197.24C473.832 196.946 469.407 192.611 466.111 190.464C459.937 186.438 453.69 182.632 447.416 178.955C434.463 171.377 421.289 164.218 407.934 158.389C395.446 152.948 382.442 150.681 369.506 149.421C320.128 144.538 269.464 171.442 230.22 215.26C212.661 234.854 197 257.953 183.679 283.904C176.858 297.288 170.753 311.448 165.42 326.252C162.838 333.381 160.489 340.7 158.292 348.099C156.172 355.218 153.82 362.228 153.509 370.02C153.14 379.172 151.552 387.956 151.743 397.188C151.894 404.521 153.777 411.711 156.098 418.083C161.032 431.669 169.899 441.618 179.244 447.602C200.578 461.238 226.321 456.191 247.045 442.435C270.325 426.991 292.138 404.885 317.914 399.753C340.819 395.19 363.882 407.56 377.368 436.218C378.43 438.47 378.252 440.831 379.002 443.163C380.63 448.19 382.463 452.848 383.853 458.064C386.308 467.271 387.671 477.086 388.76 486.831C391.081 507.667 391.393 528.636 392.006 549.691C392.562 568.897 393.878 587.52 398.035 605.79C401.797 622.231 407.548 637.571 414.023 651.959C417.058 658.71 420.344 665.207 423.707 671.619C427.599 679.037 432.353 684.826 436.751 691.547C444.813 703.893 454.3 714.002 464.302 722.501C485.686 740.686 510.166 750.262 534.796 745.175C549.491 742.136 564.273 731.225 575.062 716.239C585.637 701.531 593.023 682.425 600.52 664.23C609.745 641.811 619.385 619.889 635.4 607.264C647.436 597.768 661.029 594.191 674.514 591.466L674.484 590.584Z" fill="#880817" fill-opacity="0.63"/>
<path d="M674.521 578.69C672.574 578.894 670.634 579.114 668.687 579.383C666.054 579.752 663.427 580.26 660.803 580.878C659.266 581.231 657.728 581.72 656.207 582.203C654.069 582.886 651.462 581.924 649.408 582.736C638.352 587.106 627.044 590.818 617.578 600.864C613.055 605.672 609.651 612.553 606.043 618.747C601.687 626.221 598.052 634.293 594.651 642.824C587.782 660.074 582.194 678.745 573.784 694.521C557.597 724.861 532.974 734.996 507.812 731.393C483.413 727.905 460.754 708.672 443.348 683.598C426.062 658.684 413.408 627.028 407.608 592.238C405.933 582.143 405.383 571.809 404.468 561.485C403.554 551.16 402.874 541 403.306 530.631C403.725 520.745 404.924 510.964 405.252 501.048C405.554 491.73 404.72 482.397 403.862 473.189C400.696 439.336 391.569 405.712 370.316 389.249C350.153 373.632 324.984 373.662 303.283 380.245C280.09 387.28 260.932 407.037 239.361 420.391C228.998 426.814 217.955 431.099 206.667 429.759C194.675 428.339 181.679 419.141 175.681 403.061C170.535 389.249 171.61 371.943 174.964 357.573C175.856 353.904 176.942 350.346 178.214 346.935C179.39 343.686 179.179 340.457 180.225 337.019C182.724 328.852 185.505 320.884 188.474 313.101C200.009 282.706 215.278 255.744 232.932 232.878C252.123 208.029 274.257 188.232 298.267 175.78C311.2 169.078 324.622 165.142 338.192 162.69C353.128 159.989 367.257 161.419 381.946 165.979C395.616 170.219 408.72 175.895 421.63 183.832C434.841 191.954 447.69 201.337 460.409 211.008C472.785 220.411 485.179 229.848 497.341 239.854C502.749 244.299 508.093 248.904 513.374 253.671C516.364 256.431 519.231 259.475 521.958 262.785C524.387 265.68 527.288 267.359 529.5 270.668C532.85 275.65 539.625 276.567 544.024 278.765C549.301 281.406 553.989 284.624 559.665 285.277C573.539 286.862 587.879 283.04 601.62 280.534C616.248 277.868 630.84 274.908 645.512 272.895C652.822 271.898 660.149 271.219 667.491 270.857C669.836 270.742 672.162 270.702 674.5 270.688V269.691C672.736 269.691 670.969 269.728 669.2 269.801C661.852 270.03 654.518 270.757 647.194 271.684C633.101 273.468 619.073 276.298 605.034 278.914C591.605 281.406 577.878 284.694 564.315 284.639C558.362 284.581 552.474 282.811 546.973 279.427C540.684 275.566 533.165 274.739 528.21 267.339C526.535 264.848 523.325 263.164 521.405 260.861C519.396 258.407 517.286 256.139 515.089 254.07C509.393 248.793 503.547 243.845 497.666 238.992C485.528 228.952 473.1 219.559 460.74 210.146C436.519 191.675 412.087 174.768 385.404 166.063C371.834 161.634 358.895 159.192 344.98 160.697C332.001 162.141 319.154 165.53 306.633 170.812C283.253 180.623 261.585 198.252 242.337 220.172C224.66 240.299 209.233 264.453 196.625 291.74C190.126 305.933 184.443 320.916 179.638 336.53C178.67 339.64 178.727 343.561 177.628 346.446C176.682 348.923 175.851 351.494 175.142 354.14C173.408 360.527 172.254 367.23 171.711 374.071C170.759 386.139 172.408 399.623 177.571 409.309C183.937 421.228 194.136 427.87 204.04 430.267C224.857 435.325 245.305 418.114 263.113 404.441C273.657 396.339 284.168 388.441 295.687 383.912C308.841 378.73 322.927 375.561 336.537 377.479C348.488 379.153 360.422 382.686 371.154 391.012C383.343 400.45 391.408 416.739 396.652 435.315C401.594 452.809 403.58 472.272 404.539 491.092C405.028 500.923 404.137 510.849 403.369 520.606C402.535 531.224 402.321 541.429 403.034 552.087C404.311 571.211 406.013 589.956 409.987 608.278C413.431 624.193 418.839 638.738 425.094 652.545C449.741 707.013 495.395 747.219 540.285 729.101C552.917 724.004 563.91 712.798 572.524 698.278C583.132 680.369 589.39 657.294 597.743 637.099C602.501 625.646 608.184 615.103 614.667 605.707C620.768 596.937 628.974 592.303 636.948 588.736C640.633 587.081 644.409 585.696 648.149 584.251C650.397 583.379 652.678 584.46 654.85 583.693C656.88 582.975 658.917 582.368 660.968 581.829C665.453 580.752 669.972 580.014 674.507 579.617L674.521 578.69Z" fill="#880817" fill-opacity="0.63"/>
<path d="M674.521 567.44C653.118 568.048 631.575 568.611 611.393 580.586C602.878 585.632 596.214 600.277 591.585 611.47C585.863 625.308 581.804 640.56 577.182 655.25C572.202 671.111 566.333 685.138 557.134 696.296C546.553 709.009 533.616 716.599 520.057 718.049C495.26 720.595 470.122 702.279 452.324 677.556C433.841 651.868 421.461 616.71 418.401 579.231C416.729 558.518 417.063 537.771 418.05 516.999C419.03 496.447 420.458 475.844 419.24 455.231C418.163 437.149 415.896 419.441 409.673 403.63C404.322 390.021 395.915 378.066 386.869 370.041C377.017 361.304 365.078 358.684 353.885 356.707C340.251 354.296 326.493 354.674 312.866 356.995C287.313 361.339 263.626 375.8 239.525 388.079C229.001 393.429 216.396 396.896 206.966 385.822C194.817 371.561 202.411 340.851 207.391 323.556C216.885 290.68 231.99 260.329 249.43 235.97C258.296 223.587 268.134 212.847 278.524 203.557C290.563 192.802 305.258 186.197 318.802 181.116C371.536 161.335 419.999 200.463 460.945 246.371C480.98 268.837 500.012 294.296 521.883 312.787C531.778 321.155 542.459 324.881 553.806 322.595C560.267 321.295 565.845 317.27 571.841 313.798C578.503 309.937 585.248 306.43 592.05 303.188C618.706 290.5 646.54 282.949 674.521 282.396V281.399C651.954 281.898 629.568 286.919 607.694 295.417C594.419 300.657 581.367 307.085 568.611 314.664C562.016 318.54 556.167 321.598 549.017 322.395C542.035 323.172 534.156 320.717 527.879 316.338C516.041 308.089 505.272 296.079 494.925 284.299C485.194 273.225 475.61 261.858 465.885 250.764C447.06 229.265 427.52 208.887 405.803 194.421C382.919 179.173 358.116 171.716 333.115 176.2C320.072 178.546 307.291 184.483 295.018 191.392C283.377 197.953 272.91 206.919 262.914 217.963C244.879 237.888 229.93 263.412 218.102 291.795C211.748 307.003 206.103 322.998 202.598 340.194C199.589 354.918 197.582 373.449 205.561 385.309C211.768 394.544 221.068 395.117 229.181 393.16C240.685 390.385 251.53 382.081 262.503 376.517C288.333 363.416 315.123 354.599 342.515 356.343C355.945 357.2 370.198 359.705 382.595 367.9C393.811 375.317 403.633 390.275 409.796 405.917C416.909 423.989 418.796 446.684 419.063 467.306C419.341 488.078 417.625 508.815 416.842 529.537C415.405 567.52 418.11 605.816 431.139 639.185C441.89 666.742 457.558 689.716 476.619 704.151C497.714 720.131 522.267 724.774 544.075 709.526C553.177 703.165 561.652 693.656 567.781 681.676C574.51 668.515 578.657 652.819 583.248 637.841C586.847 626.12 590.686 614.553 595.665 603.968C598.375 598.264 601.505 593.029 604.995 588.361C609.935 581.711 615.807 578.827 622.077 576.162C639.076 568.939 656.89 568.72 674.517 568.332L674.521 567.44Z" fill="#880817" fill-opacity="0.63"/>
<path d="M246.387 312.329C248.151 315.694 248.731 318.829 250.79 321.895C252.949 325.135 254.198 326.935 257.003 328.77C259.169 330.186 261.021 331.646 263.388 331.856C267.382 332.211 271.389 332.426 275.393 332.601C289.712 333.226 304.051 332.711 318.37 331.886C332.746 331.056 347.115 329.816 361.487 328.815C368.391 328.335 375.3 327.939 382.214 327.625C385.674 327.475 389.133 327.364 392.593 327.29C395.606 327.225 400.192 328.52 403.055 327.18C407.789 324.955 413.433 324.255 417.293 319.18C420.695 314.724 424.92 308.678 425.506 301.678C426.888 285.026 421.558 269.175 416.778 254.743C414.628 248.243 412.536 242.507 409.486 236.887C406.452 231.379 403.09 226.293 399.442 221.69C393.245 213.764 386.145 207.559 378.649 202.828C353.312 186.827 323.763 191.197 299.056 207.584C286.188 216.143 274.569 228.388 264.857 243.627C253.699 261.129 244.12 287.096 246.293 311.974C246.35 312.599 247.013 312.609 246.963 311.974C245.205 291.872 251.459 274.715 257.827 257.789C259.993 252.028 263.753 246.728 266.816 242.017C270.319 236.695 274.078 231.765 278.065 227.266C292.611 210.659 310.081 200.003 328.092 195.713C346.328 191.362 365.421 194.517 382.211 206.264C390.546 212.196 398.114 220.283 404.565 230.151C412.78 242.567 417.919 258.319 422.081 274.535C424.779 285.036 427.042 299.138 422.63 309.149C417.119 321.65 407.353 326.15 397.788 326.225C380.503 326.345 363.225 327.665 345.96 328.96C328.748 330.266 311.534 331.551 294.295 331.831C285.705 331.971 277.119 331.777 268.54 331.251C263.548 330.946 257.08 330.276 253.364 324.34C251.811 321.84 249.708 319.605 248.727 316.444C248.241 314.731 247.616 313.114 246.866 311.629C246.605 311.129 246.136 311.829 246.4 312.329H246.387Z" fill="#880817" fill-opacity="0.63"/>
<path d="M279.152 286.856C286.635 305.055 302.515 306.07 315.494 306.676C331.306 307.417 348.092 305.428 363.208 298.156C369.109 295.312 373.686 291.022 377.881 284.236C380.389 280.175 383.559 274.14 383.938 268.533C384.434 261.326 383.617 254.055 381.572 247.465C373.409 220.124 350.211 212.141 331.884 214.338C318.722 215.914 306.023 223.48 295.417 234.968C290.346 240.461 285.013 247.132 282.38 255.643C280.953 260.256 278.323 264.899 277.985 269.96C277.597 275.781 277.59 281.289 279.114 286.742C279.28 287.324 279.926 287.07 279.76 286.483C274.609 268.09 284.719 249.061 293.869 237.981C302.42 227.641 312.777 220.766 323.519 217.206C344.986 210.098 374.558 218.583 382.366 253.192C386.013 269.343 379.05 285.554 369.461 293.279C363.336 298.205 356.059 300.348 349.268 302.142C332.665 306.542 314.609 307.809 297.972 303.077C290.272 300.89 283.975 296.699 279.719 286.364C279.669 286.27 279.597 286.206 279.517 286.183C279.437 286.161 279.354 286.182 279.283 286.243C279.213 286.303 279.16 286.399 279.134 286.513C279.108 286.627 279.11 286.75 279.141 286.861L279.152 286.856Z" fill="#880817" fill-opacity="0.63"/>
<path d="M674.52 553.475C665.053 552.976 655.578 552.976 646.131 552.243C633.174 551.245 620.371 547.368 607.374 547.308C601.871 547.281 596.395 548.458 591.122 550.801C585.598 553.251 582.089 557.137 578.094 563.105C575.006 567.735 573.953 575.079 572.849 581.121C571.176 590.356 569.838 599.736 568.439 609.061C565.653 627.416 562.347 645.587 555.901 661.912C549.042 679.305 538.973 690.705 525.895 695.505C501.156 704.606 476.178 687.383 458.986 661.348C449.953 647.658 442.7 631.577 438.244 613.491C433.989 596.173 432.748 577.509 432.845 559.178C432.962 538.722 435.36 518.7 437.599 498.568C439.94 477.613 442.165 456.628 444.069 435.578C444.907 426.265 445.664 416.935 446.34 407.589C447.156 396.378 446.902 384.443 450.274 374.135C456.263 355.85 474.271 360.744 484.448 366.557C503.267 377.319 519.76 402.849 541.264 392.531C551.702 387.542 560.44 375.981 568.413 365.165C572.675 359.382 576.826 353.425 581.152 347.742C583.711 344.384 586.659 341.755 589.198 338.337C590.677 336.342 592.075 334.206 593.48 332.106C594.698 330.275 597.016 329.312 598.615 328.039C599.284 327.54 599.997 326.283 600.512 325.545C602.225 322.975 604.286 321.369 606.377 319.603C610.003 316.508 613.772 313.8 617.654 311.5C625.014 307.179 632.659 304.061 640.37 301.521C651.591 297.869 663.035 295.958 674.494 294.791V293.793C653.494 295.943 632.341 300.578 612.991 313.251C608.033 316.494 602.985 320.401 599.164 326.124C597.595 328.473 594.815 329.257 593.012 331.392C589.917 335.069 587.378 339.679 584.193 343.282C576.107 352.392 569.082 363.379 561.324 373.128C552.96 383.645 543.362 392.93 532.218 394.222C520.546 395.574 509.951 385.182 500.175 377.074C491.363 369.77 482.321 362.685 472.194 360.739C462.98 358.973 453.459 362.186 449.144 375.353C446.906 382.178 446.842 389.936 446.374 397.341C445.681 408.377 444.815 419.388 443.868 430.385C441.988 452.238 439.653 474.021 437.244 495.744C433.283 531.627 429.345 567.675 435.504 603.583C445.875 664.033 494.083 720.516 536.179 691.429C549.865 681.979 558.239 661.064 563.254 640.658C566.097 629.113 567.894 617.014 569.697 605.029C571.607 592.327 572.916 578.207 577.091 566.662C581.845 553.515 593.818 549.668 602.874 548.551C611.964 547.413 621.164 549.524 630.17 551.095C644.913 553.675 659.713 553.54 674.497 554.393L674.52 553.475Z" fill="#880817" fill-opacity="0.63"/>
<path d="M448.286 590.645C451.61 636.434 484.567 685.736 517.041 675.021C525.386 672.271 532.511 664.609 538.125 655.234C539.827 652.39 540.621 648.39 541.734 644.982C542.739 641.869 545.135 637.585 545.531 634.267C546.334 627.438 546.883 620.548 547.173 613.629C548.302 585.297 544.902 556.97 537.25 530.967C531.147 510.229 521.867 491.613 509.94 477.575C504.856 471.598 498.395 464.076 491.806 463.308C484.433 462.457 479.339 465.341 473.709 472.225C463.152 485.137 457.073 505.546 453.058 524.506C448.597 545.572 446.496 568.631 448.286 590.645C448.336 591.262 449 591.277 448.956 590.645C446.61 562.016 450.675 531.634 458.621 505.521C462.324 493.322 467.335 481.71 474.181 472.928C478.052 467.946 482.298 464.514 487.446 464.135C493.884 463.637 498.556 467.298 503.824 472.295C521.301 488.833 533.315 515.678 540.112 544.426C543.523 558.818 545.494 573.942 546.345 589.135C546.711 596.125 546.807 603.141 546.634 610.147C546.459 617.908 546.737 629.121 544.137 635.971C542.297 640.848 540.678 645.934 539.11 651.015C537.736 655.453 535.011 658.92 532.571 662.069C528.308 667.526 523.28 671.503 517.852 673.71C507.38 678.084 496.203 674.293 486.665 667.309C467.388 653.227 451.302 622.895 448.969 590.645C448.919 590.012 448.266 590.012 448.299 590.645H448.286Z" fill="#880817" fill-opacity="0.63"/>
<path d="M481.962 603.476C486.071 613.741 494.027 629.317 503.208 622.878C510.132 618.012 511.092 606.048 509.386 596.327C507.723 586.866 502.083 573.888 494.86 572.475C482.643 570.082 480.751 589.888 481.921 603.231C481.979 603.856 482.65 603.856 482.609 603.231C482.086 597.342 481.921 591.597 482.929 585.782C484.398 577.18 490.823 570.022 496.925 574.218C502.637 578.144 506.536 586.851 508.477 595.318C510.542 604.245 509.836 614.646 504.427 620.645C495.562 630.466 486.532 612.977 482.557 602.976C482.506 602.882 482.433 602.817 482.351 602.795C482.269 602.772 482.185 602.793 482.113 602.854C482.042 602.915 481.988 603.012 481.961 603.126C481.934 603.24 481.937 603.364 481.969 603.476H481.962Z" fill="#880817" fill-opacity="0.63"/>
</svg>
